<mxfile host="app.diagrams.net" modified="2022-03-06T07:28:10.736Z" agent="5.0 (Windows NT 10.0; Win64; x64) AppleWebKit/537.36 (KHTML, like Gecko) Chrome/98.0.4758.102 Safari/537.36" etag="gFJe2PYawxCWmyi0oLB8" version="16.6.6" type="github">
  <diagram id="dBjNNxSfPQSyjBMYqdLF" name="Page-1">
    <mxGraphModel dx="1824" dy="1600" grid="1" gridSize="10" guides="1" tooltips="1" connect="1" arrows="1" fold="1" page="1" pageScale="1" pageWidth="850" pageHeight="1100" math="0" shadow="0">
      <root>
        <mxCell id="0" />
        <mxCell id="1" parent="0" />
        <mxCell id="kxYA4WIpbz25xKqrY5vP-1" value="User" style="rounded=0;whiteSpace=wrap;html=1;" vertex="1" parent="1">
          <mxGeometry x="100" y="160" width="110" height="50" as="geometry" />
        </mxCell>
        <mxCell id="kxYA4WIpbz25xKqrY5vP-2" value="&lt;u&gt;ID&lt;/u&gt;" style="ellipse;whiteSpace=wrap;html=1;" vertex="1" parent="1">
          <mxGeometry y="40" width="70" height="30" as="geometry" />
        </mxCell>
        <mxCell id="kxYA4WIpbz25xKqrY5vP-3" value="" style="endArrow=none;html=1;rounded=0;exitX=0.5;exitY=0;exitDx=0;exitDy=0;" edge="1" parent="1" source="kxYA4WIpbz25xKqrY5vP-1" target="kxYA4WIpbz25xKqrY5vP-2">
          <mxGeometry width="50" height="50" relative="1" as="geometry">
            <mxPoint x="130" y="160" as="sourcePoint" />
            <mxPoint x="180" y="110" as="targetPoint" />
          </mxGeometry>
        </mxCell>
        <mxCell id="kxYA4WIpbz25xKqrY5vP-4" value="FirstName" style="ellipse;whiteSpace=wrap;html=1;" vertex="1" parent="1">
          <mxGeometry x="50" y="10" width="90" height="30" as="geometry" />
        </mxCell>
        <mxCell id="kxYA4WIpbz25xKqrY5vP-5" value="" style="endArrow=none;html=1;rounded=0;entryX=0.5;entryY=1;entryDx=0;entryDy=0;" edge="1" parent="1" target="kxYA4WIpbz25xKqrY5vP-4">
          <mxGeometry width="50" height="50" relative="1" as="geometry">
            <mxPoint x="160" y="160" as="sourcePoint" />
            <mxPoint x="104.95285418722483" y="116.43176227183221" as="targetPoint" />
          </mxGeometry>
        </mxCell>
        <mxCell id="kxYA4WIpbz25xKqrY5vP-22" style="edgeStyle=orthogonalEdgeStyle;rounded=0;orthogonalLoop=1;jettySize=auto;html=1;exitX=0.5;exitY=0;exitDx=0;exitDy=0;" edge="1" parent="1" source="kxYA4WIpbz25xKqrY5vP-6">
          <mxGeometry relative="1" as="geometry">
            <mxPoint x="190" y="10" as="targetPoint" />
          </mxGeometry>
        </mxCell>
        <mxCell id="kxYA4WIpbz25xKqrY5vP-6" value="LastName" style="ellipse;whiteSpace=wrap;html=1;" vertex="1" parent="1">
          <mxGeometry x="140" width="80" height="30" as="geometry" />
        </mxCell>
        <mxCell id="kxYA4WIpbz25xKqrY5vP-7" value="" style="endArrow=none;html=1;rounded=0;entryX=0.5;entryY=1;entryDx=0;entryDy=0;" edge="1" parent="1" target="kxYA4WIpbz25xKqrY5vP-6">
          <mxGeometry width="50" height="50" relative="1" as="geometry">
            <mxPoint x="160" y="160" as="sourcePoint" />
            <mxPoint x="170" y="50" as="targetPoint" />
          </mxGeometry>
        </mxCell>
        <mxCell id="kxYA4WIpbz25xKqrY5vP-8" value="Password" style="ellipse;whiteSpace=wrap;html=1;" vertex="1" parent="1">
          <mxGeometry x="220" width="70" height="30" as="geometry" />
        </mxCell>
        <mxCell id="kxYA4WIpbz25xKqrY5vP-9" value="" style="endArrow=none;html=1;rounded=0;entryX=0.5;entryY=1;entryDx=0;entryDy=0;" edge="1" parent="1" target="kxYA4WIpbz25xKqrY5vP-8">
          <mxGeometry width="50" height="50" relative="1" as="geometry">
            <mxPoint x="160" y="160" as="sourcePoint" />
            <mxPoint x="210" y="60" as="targetPoint" />
          </mxGeometry>
        </mxCell>
        <mxCell id="kxYA4WIpbz25xKqrY5vP-10" value="Phone" style="ellipse;whiteSpace=wrap;html=1;" vertex="1" parent="1">
          <mxGeometry x="280" y="20" width="70" height="30" as="geometry" />
        </mxCell>
        <mxCell id="kxYA4WIpbz25xKqrY5vP-14" value="" style="endArrow=none;html=1;rounded=0;entryX=0.3;entryY=0.933;entryDx=0;entryDy=0;entryPerimeter=0;" edge="1" parent="1" target="kxYA4WIpbz25xKqrY5vP-10">
          <mxGeometry width="50" height="50" relative="1" as="geometry">
            <mxPoint x="160" y="160" as="sourcePoint" />
            <mxPoint x="285" y="40" as="targetPoint" />
          </mxGeometry>
        </mxCell>
        <mxCell id="kxYA4WIpbz25xKqrY5vP-16" value="Email" style="ellipse;whiteSpace=wrap;html=1;" vertex="1" parent="1">
          <mxGeometry x="310" y="60" width="70" height="30" as="geometry" />
        </mxCell>
        <mxCell id="kxYA4WIpbz25xKqrY5vP-17" value="" style="endArrow=none;html=1;rounded=0;entryX=0;entryY=0.5;entryDx=0;entryDy=0;exitX=0.5;exitY=0;exitDx=0;exitDy=0;" edge="1" parent="1" source="kxYA4WIpbz25xKqrY5vP-1" target="kxYA4WIpbz25xKqrY5vP-16">
          <mxGeometry width="50" height="50" relative="1" as="geometry">
            <mxPoint x="170" y="170" as="sourcePoint" />
            <mxPoint x="321" y="67.99000000000001" as="targetPoint" />
          </mxGeometry>
        </mxCell>
        <mxCell id="kxYA4WIpbz25xKqrY5vP-18" value="UserEnable" style="ellipse;whiteSpace=wrap;html=1;" vertex="1" parent="1">
          <mxGeometry x="310" y="100" width="70" height="30" as="geometry" />
        </mxCell>
        <mxCell id="kxYA4WIpbz25xKqrY5vP-19" value="" style="endArrow=none;html=1;rounded=0;entryX=0;entryY=0.5;entryDx=0;entryDy=0;" edge="1" parent="1" target="kxYA4WIpbz25xKqrY5vP-18">
          <mxGeometry width="50" height="50" relative="1" as="geometry">
            <mxPoint x="160" y="160" as="sourcePoint" />
            <mxPoint x="104.95285418722483" y="116.43176227183221" as="targetPoint" />
          </mxGeometry>
        </mxCell>
        <mxCell id="kxYA4WIpbz25xKqrY5vP-20" value="&lt;u&gt;UserName&lt;/u&gt;" style="ellipse;whiteSpace=wrap;html=1;" vertex="1" parent="1">
          <mxGeometry x="-30" y="80" width="70" height="30" as="geometry" />
        </mxCell>
        <mxCell id="kxYA4WIpbz25xKqrY5vP-21" value="" style="endArrow=none;html=1;rounded=0;entryX=1;entryY=1;entryDx=0;entryDy=0;" edge="1" parent="1" target="kxYA4WIpbz25xKqrY5vP-20">
          <mxGeometry width="50" height="50" relative="1" as="geometry">
            <mxPoint x="160" y="160" as="sourcePoint" />
            <mxPoint x="104.95285418722483" y="116.43176227183221" as="targetPoint" />
          </mxGeometry>
        </mxCell>
        <mxCell id="kxYA4WIpbz25xKqrY5vP-23" value="&lt;u&gt;About&amp;nbsp;&lt;/u&gt;" style="ellipse;whiteSpace=wrap;html=1;" vertex="1" parent="1">
          <mxGeometry x="-20" y="130" width="80" height="40" as="geometry" />
        </mxCell>
        <mxCell id="kxYA4WIpbz25xKqrY5vP-24" value="" style="endArrow=none;html=1;rounded=0;entryX=1;entryY=0.5;entryDx=0;entryDy=0;" edge="1" parent="1" target="kxYA4WIpbz25xKqrY5vP-23">
          <mxGeometry width="50" height="50" relative="1" as="geometry">
            <mxPoint x="170" y="160" as="sourcePoint" />
            <mxPoint x="60.01626759566034" y="125.49069286269605" as="targetPoint" />
          </mxGeometry>
        </mxCell>
        <mxCell id="kxYA4WIpbz25xKqrY5vP-50" style="edgeStyle=orthogonalEdgeStyle;rounded=0;orthogonalLoop=1;jettySize=auto;html=1;entryX=0.5;entryY=0;entryDx=0;entryDy=0;" edge="1" parent="1" source="kxYA4WIpbz25xKqrY5vP-26" target="kxYA4WIpbz25xKqrY5vP-43">
          <mxGeometry relative="1" as="geometry" />
        </mxCell>
        <mxCell id="kxYA4WIpbz25xKqrY5vP-26" value="Role" style="rounded=0;whiteSpace=wrap;html=1;" vertex="1" parent="1">
          <mxGeometry x="700" y="160" width="110" height="50" as="geometry" />
        </mxCell>
        <mxCell id="kxYA4WIpbz25xKqrY5vP-51" style="edgeStyle=orthogonalEdgeStyle;rounded=0;orthogonalLoop=1;jettySize=auto;html=1;entryX=0;entryY=0.5;entryDx=0;entryDy=0;" edge="1" parent="1" source="kxYA4WIpbz25xKqrY5vP-27" target="kxYA4WIpbz25xKqrY5vP-43">
          <mxGeometry relative="1" as="geometry">
            <mxPoint x="660" y="360" as="targetPoint" />
          </mxGeometry>
        </mxCell>
        <mxCell id="kxYA4WIpbz25xKqrY5vP-27" value="User_Role" style="rounded=0;whiteSpace=wrap;html=1;" vertex="1" parent="1">
          <mxGeometry x="380" y="350" width="110" height="50" as="geometry" />
        </mxCell>
        <mxCell id="kxYA4WIpbz25xKqrY5vP-28" value="LastName" style="ellipse;whiteSpace=wrap;html=1;" vertex="1" parent="1">
          <mxGeometry x="360" y="260" width="80" height="30" as="geometry" />
        </mxCell>
        <mxCell id="kxYA4WIpbz25xKqrY5vP-29" value="LastName" style="ellipse;whiteSpace=wrap;html=1;" vertex="1" parent="1">
          <mxGeometry x="460" y="270" width="80" height="30" as="geometry" />
        </mxCell>
        <mxCell id="kxYA4WIpbz25xKqrY5vP-30" value="" style="endArrow=none;html=1;rounded=0;" edge="1" parent="1">
          <mxGeometry width="50" height="50" relative="1" as="geometry">
            <mxPoint x="430" y="350" as="sourcePoint" />
            <mxPoint x="480" y="300" as="targetPoint" />
          </mxGeometry>
        </mxCell>
        <mxCell id="kxYA4WIpbz25xKqrY5vP-31" value="" style="endArrow=none;html=1;rounded=0;" edge="1" parent="1" target="kxYA4WIpbz25xKqrY5vP-28">
          <mxGeometry width="50" height="50" relative="1" as="geometry">
            <mxPoint x="430" y="350" as="sourcePoint" />
            <mxPoint x="490" y="310" as="targetPoint" />
          </mxGeometry>
        </mxCell>
        <mxCell id="kxYA4WIpbz25xKqrY5vP-32" value="Role" style="ellipse;whiteSpace=wrap;html=1;" vertex="1" parent="1">
          <mxGeometry x="730" y="60" width="80" height="30" as="geometry" />
        </mxCell>
        <mxCell id="kxYA4WIpbz25xKqrY5vP-33" value="Role_Id" style="ellipse;whiteSpace=wrap;html=1;" vertex="1" parent="1">
          <mxGeometry x="630" y="60" width="80" height="30" as="geometry" />
        </mxCell>
        <mxCell id="kxYA4WIpbz25xKqrY5vP-36" value="" style="endArrow=none;html=1;rounded=0;exitX=0.5;exitY=0;exitDx=0;exitDy=0;entryX=0.5;entryY=1;entryDx=0;entryDy=0;" edge="1" parent="1" source="kxYA4WIpbz25xKqrY5vP-26" target="kxYA4WIpbz25xKqrY5vP-32">
          <mxGeometry width="50" height="50" relative="1" as="geometry">
            <mxPoint x="720" y="160" as="sourcePoint" />
            <mxPoint x="770" y="110" as="targetPoint" />
          </mxGeometry>
        </mxCell>
        <mxCell id="kxYA4WIpbz25xKqrY5vP-38" value="" style="endArrow=none;html=1;rounded=0;exitX=0.5;exitY=0;exitDx=0;exitDy=0;" edge="1" parent="1" source="kxYA4WIpbz25xKqrY5vP-26" target="kxYA4WIpbz25xKqrY5vP-33">
          <mxGeometry width="50" height="50" relative="1" as="geometry">
            <mxPoint x="720" y="170" as="sourcePoint" />
            <mxPoint x="780" y="120" as="targetPoint" />
          </mxGeometry>
        </mxCell>
        <mxCell id="kxYA4WIpbz25xKqrY5vP-49" style="edgeStyle=orthogonalEdgeStyle;rounded=0;orthogonalLoop=1;jettySize=auto;html=1;entryX=0;entryY=0.5;entryDx=0;entryDy=0;" edge="1" parent="1" source="kxYA4WIpbz25xKqrY5vP-42" target="kxYA4WIpbz25xKqrY5vP-27">
          <mxGeometry relative="1" as="geometry">
            <mxPoint x="370" y="380" as="targetPoint" />
          </mxGeometry>
        </mxCell>
        <mxCell id="kxYA4WIpbz25xKqrY5vP-42" value="Has" style="rhombus;whiteSpace=wrap;html=1;" vertex="1" parent="1">
          <mxGeometry x="100" y="310" width="80" height="80" as="geometry" />
        </mxCell>
        <mxCell id="kxYA4WIpbz25xKqrY5vP-43" value="Has" style="rhombus;whiteSpace=wrap;html=1;" vertex="1" parent="1">
          <mxGeometry x="715" y="310" width="80" height="80" as="geometry" />
        </mxCell>
        <mxCell id="kxYA4WIpbz25xKqrY5vP-48" value="" style="endArrow=classic;startArrow=classic;html=1;rounded=0;entryX=0.428;entryY=1.022;entryDx=0;entryDy=0;entryPerimeter=0;exitX=0.5;exitY=0;exitDx=0;exitDy=0;" edge="1" parent="1" source="kxYA4WIpbz25xKqrY5vP-42" target="kxYA4WIpbz25xKqrY5vP-1">
          <mxGeometry width="50" height="50" relative="1" as="geometry">
            <mxPoint x="120" y="320" as="sourcePoint" />
            <mxPoint x="170" y="270" as="targetPoint" />
          </mxGeometry>
        </mxCell>
        <mxCell id="kxYA4WIpbz25xKqrY5vP-54" value="1" style="text;html=1;align=center;verticalAlign=middle;resizable=0;points=[];autosize=1;strokeColor=none;fillColor=none;" vertex="1" parent="1">
          <mxGeometry x="160" y="230" width="20" height="20" as="geometry" />
        </mxCell>
        <mxCell id="kxYA4WIpbz25xKqrY5vP-55" value="n" style="text;html=1;align=center;verticalAlign=middle;resizable=0;points=[];autosize=1;strokeColor=none;fillColor=none;" vertex="1" parent="1">
          <mxGeometry x="330" y="340" width="20" height="20" as="geometry" />
        </mxCell>
        <mxCell id="kxYA4WIpbz25xKqrY5vP-58" value="n" style="text;html=1;align=center;verticalAlign=middle;resizable=0;points=[];autosize=1;strokeColor=none;fillColor=none;" vertex="1" parent="1">
          <mxGeometry x="500" y="340" width="20" height="20" as="geometry" />
        </mxCell>
        <mxCell id="kxYA4WIpbz25xKqrY5vP-59" value="1" style="text;html=1;align=center;verticalAlign=middle;resizable=0;points=[];autosize=1;strokeColor=none;fillColor=none;" vertex="1" parent="1">
          <mxGeometry x="730" y="220" width="20" height="20" as="geometry" />
        </mxCell>
      </root>
    </mxGraphModel>
  </diagram>
</mxfile>
